# AST/ASF file generated using VICON BodyLanguage
# -----------------------------------------------
:version 1.10
:name VICON
:units
  mass 1.0
  length 0.45
  angle deg
:documentation
   .ast/.asf automatically generated from VICON data using
   VICON BodyBuilder and BodyLanguage model FoxedUp or BRILLIANT.MOD
:root
   order TX TY TZ RX RY RZ
   axis XYZ
   position 0 0 0  
   orientation 0 0 0 
:bonedata
  begin
     id 1 
     name lhipjoint
     direction 0.677091 -0.635792 0.370561 
     length 2.74323 
     axis 0 0 0  XYZ
  end
  begin
     id 2 
     name lfemur
     direction 0.34202 -0.939693 0  
     length 7.44995  
     axis 0 0 20  XYZ
    dof rx ry rz
    limits (-160.0 20.0)
           (-70.0 70.0)
           (-60.0 70.0)
  end
  begin
     id 3 
     name ltibia
     direction 0.34202 -0.939693 0   
     length 7.34467   
     axis 0 0 20   XYZ
    dof rx
    limits (-10.0 170.0)
  end
  begin
     id 4 
     name lfoot
     direction 0.101953 -0.280114 0.954537   
     length 1.72105   
     axis -90 7.62852e-016 20   XYZ
    dof rx rz
    limits (-45.0 90.0)
           (-70.0 20.0)
  end
  begin
     id 5 
     name ltoes
     direction 1.53537e-011 -4.21915e-011 1   
     length 0.865872   
     axis -90 7.62852e-016 20   XYZ
    dof rx
    limits (-90.0 20.0)
  end
  begin
     id 6 
     name rhipjoint
     direction -0.695735 -0.620586 0.361699   
     length 2.81045  
     axis 0 0 0  XYZ 
  end
  begin
     id 7 
     name rfemur
     direction -0.34202 -0.939693 0   
     length 7.29387   
     axis 0 0 -20   XYZ
    dof rx ry rz
    limits (-160.0 20.0)
           (-70.0 70.0)
           (-70.0 60.0)
  end
  begin
     id 8 
     name rtibia
     direction -0.34202 -0.939693 0   
     length 7.44935   
     axis 0 0 -20   XYZ
    dof rx
    limits (-10.0 170.0)
 end
 begin
     id 9 
     name rfoot
     direction -0.104163 -0.286184 0.952496   
     length 1.77731  
     axis -90 -7.62852e-016 -20   XYZ
    dof rx rz
    limits (-45.0 90.0)
           (-20.0 70.0)
  end
  begin
     id 10 
     name rtoes
     direction -1.5355e-011 -4.21888e-011 1   
     length 0.892424   
     axis -90 -7.62852e-016 -20   XYZ
    dof rx
    limits (-90.0 20.0)
  end
  begin
     id 11 
     name lowerback
     direction 0.0100202 0.997226 -0.0737589   
     length 2.16892   
     axis 0 0 0   XYZ
    dof rx ry rz
    limits (-20.0 45.0)
           (-30.0 30.0)
           (-30.0 30.0)
  end
  begin
     id 12 
     name upperback
     direction 0.00432398 0.999988 -0.00215019   
     length 2.17326   
     axis 0 0 0   XYZ
    dof rx ry rz
    limits (-20.0 45.0)
           (-30.0 30.0)
           (-30.0 30.0)
  end
  begin
     id 13 
     name thorax
     direction -0.00195047 0.999485 0.0320434   
     length 2.18139   
     axis 0 0 0   XYZ
    dof rx ry rz
    limits (-20.0 45.0)
           (-30.0 30.0)
           (-30.0 30.0)
  end
  begin
     id 14 
     name lowerneck
     direction 0.00782762 0.986241 0.165128   
     length 1.88415   
     axis 0 0 0   XYZ
    dof rx ry rz
    limits (-20.0 45.0)
           (-30.0 30.0)
           (-30.0 30.0)
  end
  begin
     id 15 
     name upperneck
     direction 0.00988667 0.981098 -0.193258   
     length 1.9242   
     axis 0 0 0   XYZ
    dof rx ry rz
    limits (-20.0 45.0)
           (-30.0 30.0)
           (-30.0 30.0)
  end
  begin
     id 16
     name head
     direction 0.00252199 0.996513 -0.0833958  
     length 1.93887  
     axis 0 0 0   XYZ
    dof rx ry rz
    limits (-20.0 45.0)
           (-30.0 30.0)
           (-30.0 30.0)
  end
  begin
     id 17 
     name lclavicle
     direction 0.929492 0.368193 -0.0218667  
     length 3.5955  
     axis 0 0 0   XYZ
    dof ry rz
    limits (-20.0 10.0)
           (0.0 20.0)
  end
  begin
     id 18 
     name lhumerus
     direction 1 -4.48972e-011 1.41911e-027   
     length 5.2795   
     axis 180 -30 -90   XYZ
    dof rx ry rz
    limits (-60.0 90.0)
           (-90.0 90.0)
           (-90.0 90.0)
  end
  begin
     id 19
     name lradius
     direction 1 -4.48963e-011 7.05772e-027   
     length 3.53504   
     axis 180 -30 -90   XYZ
    dof rx
    limits (-10.0 170.0)
  end
  begin
     id 20
     name lwrist
     direction 1 -4.48957e-011 9.54866e-027   
     length 1.76752   
     axis -7.69462e-015 90 90   XYZ
    dof ry
    limits (-180.0 0.0)
 end
  begin
     id 21 
     name lhand
     direction 1 -4.48979e-011 1.90973e-026   
     length 0.667948   
     axis -1.21857e-014 90 90   XYZ
    dof rx rz
    limits (-90.0 90.0)
           (-45.0 45.0)
  end
  begin
     id 22 
     name lfingers
     direction 1 -4.48987e-011 3.81946e-026   
     length 0.538517   
     axis -2.43714e-014 90 90   XYZ
    dof rx
    limits (0.0 90.0)
  end
  begin
     id 23
     name lthumb
     direction 0.707107 -6.34962e-011 0.707107   
     length 0.773206   
     axis -90 45 2.85299e-015   XYZ
    dof rx rz
    limits (-45.0 45.0)
           (-45.0 45.0)
  end
  begin
     id 24 
     name rclavicle
     direction -0.898763 0.414256 -0.143584   
     length 3.5176  
     axis 0 0 0   XYZ 
    dof ry rz
    limits (-10.0 20.0)
           (-20.0 0.0)
  end
  begin
     id 25 
     name rhumerus
     direction -1 -4.48971e-011 1.129e-027  
     length 5.25035   
     axis 180 30 90   XYZ
    dof rx ry rz
    limits (-90.0 60.0)
           (-90.0 90.0)
           (-90.0 90.0)
  end
  begin
     id 26 
     name rradius
     direction -1 -4.48955e-011 6.34664e-027   
     length 3.58884   
     axis 180 30 90   XYZ
    dof rx
    limits (-10.0 170.0)
  end
  begin
     id 27 
     name rwrist
     direction -1 -4.48966e-011 9.54866e-027   
     length 1.79442   
     axis -7.69462e-015 -90 -90   XYZ
    dof ry
    limits (-180.0 0.0)
  end
  begin
     id 28
     name rhand
     direction -1 -4.48973e-011 1.90973e-026   
     length 0.779235   
     axis -1.21857e-014 -90 -90   XYZ
    dof rx rz
    limits (-90.0 90.0)
           (-45.0 45.0)
  end
  begin
     id 29
     name rfingers
     direction -1 -4.48984e-011 3.81946e-026   
     length 0.62824   
     axis -2.43714e-014 -90 -90   XYZ
    dof rx
    limits (0.0 90.0)
  end
  begin
     id 30
     name rthumb
     direction -0.707107 -6.34968e-011 0.707107   
     length 0.90203   
     axis -90 -45 -2.85299e-015   XYZ
    dof rx rz
    limits (-45.0 45.0)
           (-45.0 45.0)
  end
:hierarchy
  begin
    root lhipjoint rhipjoint lowerback
    lhipjoint lfemur
    lfemur ltibia
    ltibia lfoot
    lfoot ltoes
    rhipjoint rfemur
    rfemur rtibia
    rtibia rfoot
    rfoot rtoes
    lowerback upperback
    upperback thorax
    thorax lowerneck lclavicle rclavicle
    lowerneck upperneck
    upperneck head
    lclavicle lhumerus
    lhumerus lradius
    lradius lwrist
    lwrist lhand lthumb
    lhand lfingers
    rclavicle rhumerus
    rhumerus rradius
    rradius rwrist
    rwrist rhand rthumb
    rhand rfingers
  end

#!OML:ASF I:\Random Stuff\random\construction\7_22_03\Session 2\subj1.ASF
:FULLY-SPECIFIED
:DEGREES
372
root 3.77142 17.805 -7.95942 20.9598 -24.8688 -3.1974
lowerback 12.2127 -2.19726 3.50747
upperback 4.67248 -2.52186 0.518615
thorax -2.07081 -1.24819 -1.08494
lowerneck -22.3154 2.55983 -3.30589
upperneck 41.584 5.63335 -1.25508
head 20.0039 1.26162 1.19335
rclavicle -8.74653e-014 2.14687e-014
rhumerus -0.558269 49.8853 -57.7443
rradius 75.8394
rwrist 23.7105
rhand -53.0919 55.7339
rfingers 7.12502
rthumb -25.5538 27.4279
lclavicle -8.74653e-014 2.14687e-014
lhumerus -19.7305 -57.2852 106.671
lradius 80.4916
lwrist 67.6992
lhand -27.7898 65.7129
lfingers 7.12502
lthumb -1.18289 -455.689
rfemur -26.2843 2.21677 19.4749
rtibia 12.1101
rfoot -4.29694 -8.255
rtoes -9.47161
lfemur -27.7209 -9.41336 -6.84474
ltibia 22.2326
lfoot -13.6777 14.0389
ltoes -35.2016
373
root 3.76933 17.803 -7.98029 21.1698 -24.3156 -3.21665
lowerback 12.4287 -2.33379 3.54829
upperback 4.6863 -2.68222 0.650488
thorax -2.17592 -1.32903 -0.940049
lowerneck -22.3659 2.47668 -3.39146
upperneck 41.515 5.5839 -1.34011
head 19.9775 1.21989 1.15597
rclavicle 7.91163e-014 -8.54774e-014
rhumerus 0.249368 50.4546 -56.4964
rradius 76.0605
rwrist 23.349
rhand -52.9735 56.5762
rfingers 7.12502
rthumb -25.4404 28.254
lclavicle 7.91163e-014 -8.54774e-014
lhumerus -19.233 -57.7531 106.193
lradius 80.4766
lwrist 67.3846
lhand -27.7047 65.9691
lfingers 7.12502
lthumb -1.10072 -455.946
rfemur -26.486 1.82171 19.6771
rtibia 12.0964
rfoot -4.3097 -8.39015
rtoes -9.50323
lfemur -28.269 -9.37505 -6.63662
ltibia 22.3521
lfoot -13.5976 13.5455
ltoes -35.1894
374
root 3.7672 17.8015 -7.99771 21.3215 -23.8053 -3.18706
lowerback 12.6117 -2.43441 3.62196
upperback 4.70761 -2.79506 0.707343
thorax -2.2578 -1.38518 -0.89895
lowerneck -22.3053 2.37844 -3.48013
upperneck 41.4811 5.41525 -1.22889
head 19.9297 1.16171 1.18741
rclavicle -2.88238e-014 -2.38542e-014
rhumerus 0.795859 50.7916 -55.54
rradius 76.274
rwrist 23.0347
rhand -52.0386 59.178
rfingers 7.12502
rthumb -24.5445 30.7312
lclavicle -2.88238e-014 -2.38542e-014
lhumerus -18.9368 -58.2392 105.865
lradius 80.5022
lwrist 67.1507
lhand -27.2734 65.647
lfingers 7.12502
lthumb -0.684138 -455.626
rfemur -26.6334 1.40102 19.8336
rtibia 12.067
rfoot -4.3094 -8.45632
rtoes -9.58474
lfemur -28.7451 -9.39963 -6.49474
ltibia 22.4623
lfoot -13.4922 13.1454
ltoes -35.222
375
root 3.76162 17.8031 -8.01317 21.4923 -23.4024 -3.24624
lowerback 12.7757 -2.50703 3.72605
upperback 4.73752 -2.86883 0.755753
thorax -2.32035 -1.42158 -0.88991
lowerneck -22.2645 2.34949 -3.61184
upperneck 41.5054 5.31651 -0.982408
head 19.9139 1.13944 1.30993
rclavicle 3.29983e-014 -4.21423e-014
rhumerus 1.30103 50.9575 -54.7647
rradius 76.4154
rwrist 22.9545
rhand -52.4743 59.0568
rfingers 7.12502
rthumb -24.9621 30.6673
lclavicle 3.29983e-014 -4.21423e-014
lhumerus -18.7806 -58.6613 105.563
lradius 80.6975
lwrist 67.3354
lhand -27.1551 63.4878
lfingers 7.12502
lthumb -0.569843 -453.467
rfemur -26.7722 1.16107 20.0266
rtibia 12.0471
rfoot -4.29502 -8.53302
rtoes -9.8013
lfemur -29.1262 -9.43705 -6.27466
ltibia 22.5418
lfoot -13.4132 12.8778
ltoes -35.3171
376
root 3.75473 17.8052 -8.02825 21.6635 -23.0981 -3.3495
lowerback 12.9537 -2.53471 3.77219
upperback 4.7695 -2.88921 0.826312
thorax -2.38224 -1.43222 -0.832672
lowerneck -22.1106 2.22756 -3.77615
upperneck 41.2509 5.21763 -1.05751
head 19.7069 1.08049 1.27414
rclavicle -1.70955e-014 3.22031e-014
rhumerus 1.77298 51.0249 -54.0798
rradius 76.5646
rwrist 23.0569
rhand -52.9312 59.8933
rfingers 7.12502
rthumb -25.3998 31.5653
lclavicle -1.70955e-014 3.22031e-014
lhumerus -18.6693 -58.925 105.364
lradius 80.8592
lwrist 67.2784
lhand -27.295 63.2184
lfingers 7.12502
lthumb -0.705023 -453.197
rfemur -26.8753 1.09237 20.203
rtibia 11.9869
rfoot -4.29616 -8.66513
rtoes -9.36845
lfemur -29.4294 -9.58917 -5.97891
ltibia 22.5912
lfoot -13.3559 12.8277
ltoes -35.2795
377
root 3.7495 17.8056 -8.0414 21.8173 -22.847 -3.42564
lowerback 13.0619 -2.46402 3.87181
upperback 4.86897 -2.78287 0.806714
thorax -2.33692 -1.37747 -0.923244
lowerneck -22.0935 2.09019 -3.81055
upperneck 41.1277 5.01201 -1.03857
head 19.6252 1.00828 1.24325
rclavicle 5.1684e-015 -9.14409e-015
rhumerus 2.0878 50.8201 -53.5659
rradius 76.7011
rwrist 23.149
rhand -53.7105 61.7799
rfingers 7.12502
rthumb -26.1462 33.5602
lclavicle 5.1684e-015 -9.14409e-015
lhumerus -18.469 -59.4697 105.189
lradius 80.9741
lwrist 67.172
lhand -27.5769 64.0725
lfingers 7.12502
lthumb -0.977316 -454.05
rfemur -26.9622 0.978635 20.3559
rtibia 11.882
rfoot -4.27544 -8.71187
rtoes -8.59381
lfemur -29.6928 -9.78322 -5.71417
ltibia 22.6073
lfoot -13.2603 12.8706
ltoes -35.2679
378
root 3.74377 17.8058 -8.05329 21.9672 -22.6105 -3.44728
lowerback 13.1176 -2.36959 3.93578
upperback 5.02085 -2.65542 0.752994
thorax -2.20698 -1.31057 -1.0361
lowerneck -22.2407 1.96989 -3.68793
upperneck 41.0726 4.82894 -1.1314
head 19.6451 0.947982 1.13907
rclavicle -1.35174e-014 -1.74931e-014
rhumerus 2.49352 50.4886 -52.9874
rradius 76.7317
rwrist 22.9708
rhand -53.9951 62.9515
rfingers 7.12502
rthumb -26.4186 34.7725
lclavicle -1.35174e-014 -1.74931e-014
lhumerus -18.0461 -60.0444 104.894
lradius 81.0324
lwrist 67.0422
lhand -27.4339 64.1758
lfingers 7.12502
lthumb -0.839175 -454.154
rfemur -27.082 0.748844 20.5084
rtibia 11.7638
rfoot -4.16934 -8.67427
rtoes -8.49419
lfemur -29.9577 -10.0566 -5.48027
ltibia 22.5889
lfoot -13.1707 12.9797
ltoes -35.3097
379
root 3.73744 17.8081 -8.06348 22.0847 -22.4115 -3.41688
lowerback 13.2289 -2.50472 3.68414
upperback 5.02814 -2.85252 0.913907
thorax -2.24954 -1.41153 -0.693318
lowerneck -22.0031 2.09958 -3.78536
upperneck 40.9495 5.19831 -1.46869
head 19.5123 1.03153 1.06719
rclavicle -2.3059e-014 1.03368e-014
rhumerus 3.4762 51.0315 -51.8451
rradius 76.7295
rwrist 22.5277
rhand -53.6603 62.8175
rfingers 7.12502
rthumb -26.0981 34.5907
lclavicle -2.3059e-014 1.03368e-014
lhumerus -17.9407 -59.4097 105.001
lradius 80.9764
lwrist 66.5492
lhand -27.0327 63.6529
lfingers 7.12502
lthumb -0.451638 -453.632
rfemur -27.1699 0.552846 20.5937
rtibia 11.6224
rfoot -4.07105 -8.70761
rtoes -8.13162
lfemur -30.1893 -10.514 -5.25008
ltibia 22.5656
lfoot -13.1339 13.297
ltoes -35.341
380
root 3.7321 17.8119 -8.07141 22.2034 -22.2499 -3.4212
lowerback 13.3283 -2.53038 3.64183
upperback 5.06546 -2.88726 0.918326
thorax -2.26325 -1.42882 -0.656505
lowerneck -21.8669 2.0981 -3.69156
upperneck 40.8463 5.23605 -1.68565
head 19.4256 1.03619 0.950315
rclavicle 2.26615e-014 -6.36111e-015
rhumerus 3.88679 51.1851 -51.2735
rradius 76.7305
rwrist 22.1147
rhand -53.3493 62.7139
rfingers 7.12502
rthumb -25.8003 34.4435
lclavicle 2.26615e-014 -6.36111e-015
lhumerus -18.0589 -59.2007 105.175
lradius 80.975
lwrist 65.9218
lhand -26.973 63.9921
lfingers 7.12502
lthumb -0.394014 -453.971
rfemur -27.2324 0.467102 20.663
rtibia 11.4874
rfoot -3.97544 -8.76093
rtoes -8.13428
lfemur -30.3925 -11.1073 -4.94795
ltibia 22.5499
lfoot -13.1222 13.8216
ltoes -35.4672
